{
    "asset" : {
        "generator" : "Khronos glTF Blender I/O v3.2.40",
        "version" : "2.0"
    },
    "extensionsUsed" : [
        "KHR_texture_transform",
        "KHR_materials_transmission"
    ],
    "extensionsRequired" : [
        "KHR_texture_transform"
    ],
    "scene" : 0,
    "scenes" : [
        {
            "name" : "Scene",
            "nodes" : [
                7
            ]
        }
    ],
    "nodes" : [
        {
            "mesh" : 0,
            "name" : "Plane.008",
            "translation" : [
                -0.09637725353240967,
                -0.18279039859771729,
                0.10438874363899231
            ]
        },
        {
            "mesh" : 1,
            "name" : "Sphere.001",
            "translation" : [
                -0.1014089584350586,
                0.07281792163848877,
                0.09761060029268265
            ]
        },
        {
            "mesh" : 2,
            "name" : "Sphere.002",
            "translation" : [
                0.10457849502563477,
                0.07281792163848877,
                0.09733409434556961
            ]
        },
        {
            "mesh" : 3,
            "name" : "Sphere.003",
            "translation" : [
                0.10457861423492432,
                0.0728001594543457,
                0.09733409434556961
            ]
        },
        {
            "mesh" : 4,
            "name" : "Sphere.004",
            "translation" : [
                -0.1013946533203125,
                0.0728001594543457,
                0.09761477261781693
            ]
        },
        {
            "mesh" : 5,
            "name" : "Sphere.005",
            "translation" : [
                -0.10133910179138184,
                0.11024367809295654,
                0.12192494422197342
            ]
        },
        {
            "mesh" : 6,
            "name" : "Sphere.006",
            "translation" : [
                0.10464715957641602,
                0.11024153232574463,
                0.1216483786702156
            ]
        },
        {
            "children" : [
                0,
                1,
                2,
                3,
                4,
                5,
                6
            ],
            "mesh" : 7,
            "name" : "1"
        }
    ],
    "materials" : [
        {
            "doubleSided" : true,
            "name" : "Inky-Black.001",
            "pbrMetallicRoughness" : {
                "baseColorFactor" : [
                    0.020288564264774323,
                    0.020288558676838875,
                    0.020288560539484024,
                    1
                ],
                "metallicFactor" : 0,
                "metallicRoughnessTexture" : {
                    "extensions" : {
                        "KHR_texture_transform" : {
                            "offset" : [
                                0,
                                -1
                            ],
                            "scale" : [
                                2,
                                2
                            ]
                        }
                    },
                    "index" : 0
                }
            }
        },
        {
            "doubleSided" : true,
            "name" : "Clean Slate.001",
            "pbrMetallicRoughness" : {
                "baseColorFactor" : [
                    0.8631576299667358,
                    0.8796225190162659,
                    0.7912981510162354,
                    1
                ],
                "metallicFactor" : 0,
                "metallicRoughnessTexture" : {
                    "extensions" : {
                        "KHR_texture_transform" : {
                            "offset" : [
                                0,
                                -1
                            ],
                            "scale" : [
                                2,
                                2
                            ]
                        }
                    },
                    "index" : 1
                }
            }
        },
        {
            "alphaMode" : "BLEND",
            "doubleSided" : true,
            "extensions" : {
                "KHR_materials_transmission" : {
                    "transmissionFactor" : 1
                }
            },
            "name" : "Clear.001",
            "pbrMetallicRoughness" : {
                "metallicFactor" : 0,
                "roughnessFactor" : 0.10000000149011612
            }
        },
        {
            "doubleSided" : true,
            "name" : "Pitch Purple",
            "normalTexture" : {
                "extensions" : {
                    "KHR_texture_transform" : {
                        "offset" : [
                            0,
                            -1
                        ],
                        "scale" : [
                            2,
                            2
                        ]
                    }
                },
                "index" : 2
            },
            "pbrMetallicRoughness" : {
                "baseColorFactor" : [
                    0.14892463386058807,
                    0.058284882456064224,
                    0.5623174905776978,
                    1
                ],
                "metallicFactor" : 0,
                "metallicRoughnessTexture" : {
                    "extensions" : {
                        "KHR_texture_transform" : {
                            "offset" : [
                                0,
                                -1
                            ],
                            "scale" : [
                                2,
                                2
                            ]
                        }
                    },
                    "index" : 3
                }
            }
        }
    ],
    "meshes" : [
        {
            "name" : "Plane.008",
            "primitives" : [
                {
                    "attributes" : {
                        "POSITION" : 0,
                        "NORMAL" : 1,
                        "TEXCOORD_0" : 2
                    },
                    "indices" : 3,
                    "material" : 0
                }
            ]
        },
        {
            "name" : "Sphere.001",
            "primitives" : [
                {
                    "attributes" : {
                        "POSITION" : 4,
                        "NORMAL" : 5,
                        "TEXCOORD_0" : 6
                    },
                    "indices" : 7,
                    "material" : 1
                }
            ]
        },
        {
            "name" : "Sphere.002",
            "primitives" : [
                {
                    "attributes" : {
                        "POSITION" : 8,
                        "NORMAL" : 9,
                        "TEXCOORD_0" : 10
                    },
                    "indices" : 7,
                    "material" : 1
                }
            ]
        },
        {
            "name" : "Sphere.003",
            "primitives" : [
                {
                    "attributes" : {
                        "POSITION" : 11,
                        "NORMAL" : 12,
                        "TEXCOORD_0" : 13
                    },
                    "indices" : 14,
                    "material" : 2
                }
            ]
        },
        {
            "name" : "Sphere.004",
            "primitives" : [
                {
                    "attributes" : {
                        "POSITION" : 15,
                        "NORMAL" : 16,
                        "TEXCOORD_0" : 17
                    },
                    "indices" : 14,
                    "material" : 2
                }
            ]
        },
        {
            "name" : "Sphere.005",
            "primitives" : [
                {
                    "attributes" : {
                        "POSITION" : 18,
                        "NORMAL" : 19,
                        "TEXCOORD_0" : 20
                    },
                    "indices" : 7,
                    "material" : 0
                }
            ]
        },
        {
            "name" : "Sphere.006",
            "primitives" : [
                {
                    "attributes" : {
                        "POSITION" : 21,
                        "NORMAL" : 22,
                        "TEXCOORD_0" : 23
                    },
                    "indices" : 7,
                    "material" : 0
                }
            ]
        },
        {
            "name" : "Circle.009",
            "primitives" : [
                {
                    "attributes" : {
                        "POSITION" : 24,
                        "NORMAL" : 25,
                        "TEXCOORD_0" : 26
                    },
                    "indices" : 27,
                    "material" : 3
                }
            ]
        }
    ],
    "textures" : [
        {
            "sampler" : 0,
            "source" : 0
        },
        {
            "sampler" : 0,
            "source" : 0
        },
        {
            "sampler" : 0,
            "source" : 1
        },
        {
            "sampler" : 0,
            "source" : 0
        }
    ],
    "images" : [
        {
            "mimeType" : "image/png",
            "name" : "uh4sbdxc_4K_Roughness",
            "uri" : "uh4sbdxc_4K_Roughness.png"
        },
        {
            "mimeType" : "image/jpeg",
            "name" : "uh4sbdxc_4K_Roughness",
            "uri" : "uh4sbdxc_4K_Roughness-1.jpg"
        }
    ],
    "accessors" : [
        {
            "bufferView" : 0,
            "componentType" : 5126,
            "count" : 28,
            "max" : [
                0.045750267803668976,
                0.06759190559387207,
                0.01445880625396967
            ],
            "min" : [
                -0.056491751223802567,
                0.017163248732686043,
                -0.0011255857534706593
            ],
            "type" : "VEC3"
        },
        {
            "bufferView" : 1,
            "componentType" : 5126,
            "count" : 28,
            "type" : "VEC3"
        },
        {
            "bufferView" : 2,
            "componentType" : 5126,
            "count" : 28,
            "type" : "VEC2"
        },
        {
            "bufferView" : 3,
            "componentType" : 5123,
            "count" : 156,
            "type" : "SCALAR"
        },
        {
            "bufferView" : 4,
            "componentType" : 5126,
            "count" : 219,
            "max" : [
                0.09204308688640594,
                0.0920429676771164,
                0.02618536539375782
            ],
            "min" : [
                -0.09204304218292236,
                -0.09204315394163132,
                -0.02618575654923916
            ],
            "type" : "VEC3"
        },
        {
            "bufferView" : 5,
            "componentType" : 5126,
            "count" : 219,
            "type" : "VEC3"
        },
        {
            "bufferView" : 6,
            "componentType" : 5126,
            "count" : 219,
            "type" : "VEC2"
        },
        {
            "bufferView" : 7,
            "componentType" : 5123,
            "count" : 1080,
            "type" : "SCALAR"
        },
        {
            "bufferView" : 8,
            "componentType" : 5126,
            "count" : 219,
            "max" : [
                0.09204308688640594,
                0.0920429676771164,
                0.02618536539375782
            ],
            "min" : [
                -0.09204304218292236,
                -0.09204315394163132,
                -0.02618575654923916
            ],
            "type" : "VEC3"
        },
        {
            "bufferView" : 9,
            "componentType" : 5126,
            "count" : 219,
            "type" : "VEC3"
        },
        {
            "bufferView" : 10,
            "componentType" : 5126,
            "count" : 219,
            "type" : "VEC2"
        },
        {
            "bufferView" : 11,
            "componentType" : 5126,
            "count" : 116,
            "max" : [
                0.0939985066652298,
                0.09399846941232681,
                0.04699356108903885
            ],
            "min" : [
                -0.09399846196174622,
                -0.0939985066652298,
                -2.0241482445726433e-07
            ],
            "type" : "VEC3"
        },
        {
            "bufferView" : 12,
            "componentType" : 5126,
            "count" : 116,
            "type" : "VEC3"
        },
        {
            "bufferView" : 13,
            "componentType" : 5126,
            "count" : 116,
            "type" : "VEC2"
        },
        {
            "bufferView" : 14,
            "componentType" : 5123,
            "count" : 540,
            "type" : "SCALAR"
        },
        {
            "bufferView" : 15,
            "componentType" : 5126,
            "count" : 116,
            "max" : [
                0.0939985066652298,
                0.09399846941232681,
                0.04699356108903885
            ],
            "min" : [
                -0.09399846196174622,
                -0.0939985066652298,
                -2.414542450424051e-07
            ],
            "type" : "VEC3"
        },
        {
            "bufferView" : 16,
            "componentType" : 5126,
            "count" : 116,
            "type" : "VEC3"
        },
        {
            "bufferView" : 17,
            "componentType" : 5126,
            "count" : 116,
            "type" : "VEC2"
        },
        {
            "bufferView" : 18,
            "componentType" : 5126,
            "count" : 219,
            "max" : [
                0.03667695075273514,
                0.03667713329195976,
                0.010434680618345737
            ],
            "min" : [
                -0.036676906049251556,
                -0.036677174270153046,
                -0.010434720665216446
            ],
            "type" : "VEC3"
        },
        {
            "bufferView" : 19,
            "componentType" : 5126,
            "count" : 219,
            "type" : "VEC3"
        },
        {
            "bufferView" : 20,
            "componentType" : 5126,
            "count" : 219,
            "type" : "VEC2"
        },
        {
            "bufferView" : 21,
            "componentType" : 5126,
            "count" : 219,
            "max" : [
                0.03667718544602394,
                0.03667711839079857,
                0.010434743016958237
            ],
            "min" : [
                -0.03667714074254036,
                -0.03667715936899185,
                -0.01043478399515152
            ],
            "type" : "VEC3"
        },
        {
            "bufferView" : 22,
            "componentType" : 5126,
            "count" : 219,
            "type" : "VEC3"
        },
        {
            "bufferView" : 23,
            "componentType" : 5126,
            "count" : 219,
            "type" : "VEC2"
        },
        {
            "bufferView" : 24,
            "componentType" : 5126,
            "count" : 4782,
            "max" : [
                0.4918838441371918,
                0.49187925457954407,
                0.10428566485643387
            ],
            "min" : [
                -0.49165868759155273,
                -0.4916146397590637,
                -0.10428621619939804
            ],
            "type" : "VEC3"
        },
        {
            "bufferView" : 25,
            "componentType" : 5126,
            "count" : 4782,
            "type" : "VEC3"
        },
        {
            "bufferView" : 26,
            "componentType" : 5126,
            "count" : 4782,
            "type" : "VEC2"
        },
        {
            "bufferView" : 27,
            "componentType" : 5123,
            "count" : 23580,
            "type" : "SCALAR"
        }
    ],
    "bufferViews" : [
        {
            "buffer" : 0,
            "byteLength" : 336,
            "byteOffset" : 0
        },
        {
            "buffer" : 0,
            "byteLength" : 336,
            "byteOffset" : 336
        },
        {
            "buffer" : 0,
            "byteLength" : 224,
            "byteOffset" : 672
        },
        {
            "buffer" : 0,
            "byteLength" : 312,
            "byteOffset" : 896
        },
        {
            "buffer" : 0,
            "byteLength" : 2628,
            "byteOffset" : 1208
        },
        {
            "buffer" : 0,
            "byteLength" : 2628,
            "byteOffset" : 3836
        },
        {
            "buffer" : 0,
            "byteLength" : 1752,
            "byteOffset" : 6464
        },
        {
            "buffer" : 0,
            "byteLength" : 2160,
            "byteOffset" : 8216
        },
        {
            "buffer" : 0,
            "byteLength" : 2628,
            "byteOffset" : 10376
        },
        {
            "buffer" : 0,
            "byteLength" : 2628,
            "byteOffset" : 13004
        },
        {
            "buffer" : 0,
            "byteLength" : 1752,
            "byteOffset" : 15632
        },
        {
            "buffer" : 0,
            "byteLength" : 1392,
            "byteOffset" : 17384
        },
        {
            "buffer" : 0,
            "byteLength" : 1392,
            "byteOffset" : 18776
        },
        {
            "buffer" : 0,
            "byteLength" : 928,
            "byteOffset" : 20168
        },
        {
            "buffer" : 0,
            "byteLength" : 1080,
            "byteOffset" : 21096
        },
        {
            "buffer" : 0,
            "byteLength" : 1392,
            "byteOffset" : 22176
        },
        {
            "buffer" : 0,
            "byteLength" : 1392,
            "byteOffset" : 23568
        },
        {
            "buffer" : 0,
            "byteLength" : 928,
            "byteOffset" : 24960
        },
        {
            "buffer" : 0,
            "byteLength" : 2628,
            "byteOffset" : 25888
        },
        {
            "buffer" : 0,
            "byteLength" : 2628,
            "byteOffset" : 28516
        },
        {
            "buffer" : 0,
            "byteLength" : 1752,
            "byteOffset" : 31144
        },
        {
            "buffer" : 0,
            "byteLength" : 2628,
            "byteOffset" : 32896
        },
        {
            "buffer" : 0,
            "byteLength" : 2628,
            "byteOffset" : 35524
        },
        {
            "buffer" : 0,
            "byteLength" : 1752,
            "byteOffset" : 38152
        },
        {
            "buffer" : 0,
            "byteLength" : 57384,
            "byteOffset" : 39904
        },
        {
            "buffer" : 0,
            "byteLength" : 57384,
            "byteOffset" : 97288
        },
        {
            "buffer" : 0,
            "byteLength" : 38256,
            "byteOffset" : 154672
        },
        {
            "buffer" : 0,
            "byteLength" : 47160,
            "byteOffset" : 192928
        }
    ],
    "samplers" : [
        {
            "magFilter" : 9729,
            "minFilter" : 9987
        }
    ],
    "buffers" : [
        {
            "byteLength" : 240088,
            "uri" : "1-Guy.bin"
        }
    ]
}
