{
    "asset" : {
        "generator" : "Khronos glTF Blender I/O v3.2.40",
        "version" : "2.0"
    },
    "scene" : 0,
    "scenes" : [
        {
            "name" : "Scene",
            "nodes" : [
                0
            ]
        }
    ],
    "nodes" : [
        {
            "mesh" : 0,
            "name" : "Mooh"
        }
    ],
    "materials" : [
        {
            "doubleSided" : true,
            "name" : "Mooch",
            "pbrMetallicRoughness" : {
                "baseColorFactor" : [
                    0.800000011920929,
                    0.800000011920929,
                    0.800000011920929,
                    1
                ],
                "metallicFactor" : 0,
                "roughnessFactor" : 0.5
            }
        },
        {
            "doubleSided" : true,
            "name" : "Meta",
            "pbrMetallicRoughness" : {
                "baseColorFactor" : [
                    0.6172060966491699,
                    1,
                    0,
                    1
                ],
                "metallicFactor" : 0,
                "roughnessFactor" : 0.5
            }
        }
    ],
    "meshes" : [
        {
            "name" : "Curve",
            "primitives" : [
                {
                    "attributes" : {
                        "POSITION" : 0,
                        "NORMAL" : 1,
                        "TEXCOORD_0" : 2
                    },
                    "indices" : 3,
                    "material" : 0
                },
                {
                    "attributes" : {
                        "POSITION" : 4,
                        "NORMAL" : 5,
                        "TEXCOORD_0" : 6
                    },
                    "indices" : 7,
                    "material" : 1
                }
            ]
        }
    ],
    "accessors" : [
        {
            "bufferView" : 0,
            "componentType" : 5126,
            "count" : 2354,
            "max" : [
                0.9671052694320679,
                0.26128214597702026,
                0.02781364694237709
            ],
            "min" : [
                -0.16277319192886353,
                -0.005073642358183861,
                -0.027813635766506195
            ],
            "type" : "VEC3"
        },
        {
            "bufferView" : 1,
            "componentType" : 5126,
            "count" : 2354,
            "type" : "VEC3"
        },
        {
            "bufferView" : 2,
            "componentType" : 5126,
            "count" : 2354,
            "type" : "VEC2"
        },
        {
            "bufferView" : 3,
            "componentType" : 5123,
            "count" : 6888,
            "type" : "SCALAR"
        },
        {
            "bufferView" : 4,
            "componentType" : 5126,
            "count" : 1704,
            "max" : [
                -0.21825534105300903,
                0.23701779544353485,
                0.02781364694237709
            ],
            "min" : [
                -1.0071085691452026,
                -0.005031198728829622,
                -0.027813635766506195
            ],
            "type" : "VEC3"
        },
        {
            "bufferView" : 5,
            "componentType" : 5126,
            "count" : 1704,
            "type" : "VEC3"
        },
        {
            "bufferView" : 6,
            "componentType" : 5126,
            "count" : 1704,
            "type" : "VEC2"
        },
        {
            "bufferView" : 7,
            "componentType" : 5123,
            "count" : 4872,
            "type" : "SCALAR"
        }
    ],
    "bufferViews" : [
        {
            "buffer" : 0,
            "byteLength" : 28248,
            "byteOffset" : 0
        },
        {
            "buffer" : 0,
            "byteLength" : 28248,
            "byteOffset" : 28248
        },
        {
            "buffer" : 0,
            "byteLength" : 18832,
            "byteOffset" : 56496
        },
        {
            "buffer" : 0,
            "byteLength" : 13776,
            "byteOffset" : 75328
        },
        {
            "buffer" : 0,
            "byteLength" : 20448,
            "byteOffset" : 89104
        },
        {
            "buffer" : 0,
            "byteLength" : 20448,
            "byteOffset" : 109552
        },
        {
            "buffer" : 0,
            "byteLength" : 13632,
            "byteOffset" : 130000
        },
        {
            "buffer" : 0,
            "byteLength" : 9744,
            "byteOffset" : 143632
        }
    ],
    "buffers" : [
        {
            "byteLength" : 153376,
            "uri" : "MetaMooch.bin"
        }
    ]
}
